# xmcd
#
# Track frame offsets: 
#        150
#        10458
#        20316
#        28059
#        36606
#        47382
#        58119
#        68419
#        78680
#        88889
#        100362
#        113802
#        124631
#        135868
#        148441
#        158291
#        169447
#        179600
#        192936
#        202946
#        211836
#        219771
#        229194
#        240472
#
# Disc length: 3320 seconds
#
# Revision: 0
# Processed by: cddbd v1.5.1PL0 Copyright (c) Steve Scherf et al.
# Submitted via: ExactAudioCopy v0.95a4
#
DISCID=4c0cf618
DTITLE=Various Artist - Starday-Dixie Rockabilly Vol. 2
DYEAR=1900
DGENRE=Country
TTITLE0=Corky Jones - Hot Dog
TTITLE1=Corky Jones - Rhythm And Booze
TTITLE2=Joe Poovey - Sweet Louella aka Louella
TTITLE3=Joe Poovey - My Life's Ambition
TTITLE4=Joe Poovey and The Royal Dukes - Careful Baby
TTITLE5=Joe Poovey and The Royal Dukes - Move Around
TTITLE6=Jimmy Lee and The Playboys - Three Little Wishes
TTITLE7=The Hi-Liters (voc. Joe Franklin) - Dance Me To Death
TTITLE8=The Hi-Liters (voc. Joe Franklin) - Big Bad Wolf
TTITLE9=Alton Guyon - Bop Bobby Sox Bop
TTITLE10=Alton Guyon - Coffee Baby
TTITLE11=Lucky Wray - Got Another Baby
TTITLE12=Lucky Wray - What'cha Say Honey?
TTITLE13=Tommy Nelson and Band - Danglin' On A String
TTITLE14=Hal Payne - Honky Tonk Stomp
TTITLE15=Fuzzy Whitener with Jerry Dykes and His Band - Sugar Buggar
TTITLE16=Billy Match and The Starfires - I Want My Baby
TTITLE17=Eddie Seacrist and The Rolling Rockets - Dancing To The Rhythm 
TTITLE17=Of A Rock 'N' Roll Band
TTITLE18=John Worthan - The Cats Were Jumpin'
TTITLE19=The Love Brothers - Baby, I'll Never Let You Go
TTITLE20=Orella and Norella Myers - Rock 'N' Roll Boogie
TTITLE21=Lattie Moore - Why Did You Lie To Me?
TTITLE22=Daniel Nix and The Compensation Boys - Compensation Blues
TTITLE23=Ray Strong - You're Gonna Reap What You Sow
EXTD=
EXTT0=
EXTT1=
EXTT2=
EXTT3=
EXTT4=
EXTT5=
EXTT6=
EXTT7=
EXTT8=
EXTT9=
EXTT10=
EXTT11=
EXTT12=
EXTT13=
EXTT14=
EXTT15=
EXTT16=
EXTT17=
EXTT18=
EXTT19=
EXTT20=
EXTT21=
EXTT22=
EXTT23=
PLAYORDER=
